<?xml version="1.0" encoding="utf-8"?>
<!-- Generator: Adobe Illustrator 23.0.0, SVG Export Plug-In . SVG Version: 6.00 Build 0)  -->
<svg version="1.1" id="Layer_1" xmlns="http://www.w3.org/2000/svg" xmlns:xlink="http://www.w3.org/1999/xlink" x="0px" y="0px"
	 viewBox="0 0 119.49 105.51" style="enable-background:new 0 0 119.49 105.51;" xml:space="preserve">
<style type="text/css">
	.st0{fill:#FF8843;}
	.st1{fill:none;}
	.st2{fill:#00DAF3;}
</style>
<g>
	<rect x="20.87" y="3.29" class="st2" width="77.74" height="3.53"/>
	<rect x="20.87" y="66.89" class="st2" width="77.74" height="3.53"/>
	<rect x="6.74" y="77.49" class="st2" width="106.01" height="3.53"/>
	<rect x="6.74" y="98.69" class="st2" width="106.01" height="3.53"/>
	<rect x="17.34" y="6.82" class="st2" width="3.53" height="3.53"/>
	<rect x="13.81" y="10.35" class="st2" width="3.53" height="53"/>
	<rect x="20.87" y="13.89" class="st2" width="3.53" height="45.94"/>
	<rect x="95.08" y="13.89" class="st2" width="3.53" height="45.94"/>
	<rect x="102.15" y="10.35" class="st2" width="3.53" height="53"/>
	<rect x="98.61" y="6.82" class="st2" width="3.53" height="3.53"/>
	<rect x="17.34" y="63.36" class="st2" width="3.53" height="3.53"/>
	<rect x="98.61" y="63.36" class="st2" width="3.53" height="3.53"/>
	<rect x="24.41" y="10.35" class="st2" width="70.67" height="3.53"/>
	<rect x="24.41" y="59.82" class="st2" width="70.67" height="3.53"/>
	<rect x="3.21" y="81.03" class="st2" width="3.53" height="17.67"/>
	<rect x="112.75" y="81.03" class="st2" width="3.53" height="17.67"/>
	<rect x="91.55" y="84.56" class="st2" width="17.67" height="3.53"/>
	<rect x="80.95" y="84.56" class="st2" width="7.07" height="3.53"/>
	<rect x="38.54" y="24.49" class="st2" width="3.53" height="7.07"/>
	<rect x="77.41" y="24.49" class="st2" width="3.53" height="7.07"/>
	<rect x="56.21" y="31.56" class="st2" width="3.53" height="10.6"/>
	<rect x="59.74" y="38.62" class="st2" width="3.53" height="3.53"/>
	<rect x="42.08" y="45.69" class="st2" width="3.53" height="3.53"/>
	<rect x="73.88" y="45.69" class="st2" width="3.53" height="3.53"/>
	<rect x="45.61" y="49.22" class="st2" width="28.27" height="3.53"/>
</g>
</svg>
